<?xml version="1.0" encoding="UTF-8" standalone="no"?>
<!-- Created with Inkscape (http://www.inkscape.org/) -->

<svg
   xmlns:osb="http://www.openswatchbook.org/uri/2009/osb"
   xmlns:dc="http://purl.org/dc/elements/1.1/"
   xmlns:cc="http://creativecommons.org/ns#"
   xmlns:rdf="http://www.w3.org/1999/02/22-rdf-syntax-ns#"
   xmlns:svg="http://www.w3.org/2000/svg"
   xmlns="http://www.w3.org/2000/svg"
   xmlns:sodipodi="http://sodipodi.sourceforge.net/DTD/sodipodi-0.dtd"
   xmlns:inkscape="http://www.inkscape.org/namespaces/inkscape"
   width="560px"
   height="280px"
   viewBox="0 0 560 280"
   version="1.1"
   id="SVGRoot"
   inkscape:version="0.92.5 (2060ec1f9f, 2020-04-08)"
   sodipodi:docname="banner_560x280.svg"
   inkscape:export-filename="/usr/share/odoo-project/project_task_weekno/static/description/banner.png"
   inkscape:export-xdpi="92.61972"
   inkscape:export-ydpi="92.61972">
  <defs
     id="defs1502">
    <linearGradient
       id="linearGradient4211"
       osb:paint="solid">
      <stop
         style="stop-color:#930a57;stop-opacity:0.64959568;"
         offset="0"
         id="stop4209" />
    </linearGradient>
  </defs>
  <sodipodi:namedview
     id="base"
     pagecolor="#ffffff"
     bordercolor="#666666"
     borderopacity="1.0"
     inkscape:pageopacity="0.0"
     inkscape:pageshadow="2"
     inkscape:zoom="1"
     inkscape:cx="274.95855"
     inkscape:cy="121.25722"
     inkscape:document-units="px"
     inkscape:current-layer="layer1"
     showgrid="false"
     inkscape:window-width="1697"
     inkscape:window-height="773"
     inkscape:window-x="131"
     inkscape:window-y="133"
     inkscape:window-maximized="0">
    <inkscape:grid
       type="xygrid"
       id="grid2236" />
  </sodipodi:namedview>
  <metadata
     id="metadata1505">
    <rdf:RDF>
      <cc:Work
         rdf:about="">
        <dc:format>image/svg+xml</dc:format>
        <dc:type
           rdf:resource="http://purl.org/dc/dcmitype/StillImage" />
        <dc:title />
      </cc:Work>
    </rdf:RDF>
  </metadata>
  <g
     inkscape:label="Layer 1"
     inkscape:groupmode="layer"
     id="layer1">
    <g
       id="g1954"
       transform="matrix(0.81401749,0,0,1.2110406,87.964326,13.739548)"
       style="stroke-width:1.00717223">
      <rect
         y="-17.522648"
         x="-133"
         height="241.11497"
         width="717.42932"
         id="rect1936"
         style="opacity:1;vector-effect:none;fill:#ffffff;fill-opacity:1;fill-rule:evenodd;stroke-width:1.00717223;stroke-linecap:butt;stroke-linejoin:miter;stroke-miterlimit:4;stroke-dasharray:none;stroke-dashoffset:0;stroke-opacity:1" />
    </g>
    <path
       style="opacity:1;fill:#8105a7;fill-opacity:1;fill-rule:nonzero;stroke:none;stroke-width:1.54263723;stroke-linejoin:miter;stroke-miterlimit:4;stroke-dasharray:none;stroke-dashoffset:2.49826765;stroke-opacity:1;paint-order:fill markers stroke"
       id="path1226"
       sodipodi:type="arc"
       sodipodi:cx="-33"
       sodipodi:cy="156"
       sodipodi:rx="247.60332"
       sodipodi:ry="206.46465"
       sodipodi:start="0"
       sodipodi:end="6.279815"
       sodipodi:open="true"
       d="M 214.60332,156 A 247.60332,206.46465 0 0 1 -32.791375,362.46457 247.60332,206.46465 0 0 1 -280.60297,156.34792 247.60332,206.46465 0 0 1 -33.625874,-50.463986 247.60332,206.46465 0 0 1 214.60191,155.30415" />
    <path
       style="opacity:1;fill:#930a58;fill-opacity:1;stroke:#4b1f50;stroke-opacity:1;stroke-width:0;stroke-miterlimit:4;stroke-dasharray:none"
       d="m -51.3,361.51893 c -98.93718,-6.34329 -183.74053,-61.30726 -215.89018,-139.92587 -5.4424,-13.30884 -8.94079,-26.31381 -11.18768,-41.5893 -2.26962,-15.43003 -1.50799,-43.95825 1.55656,-58.30376 12.90384,-60.40435 55.91541,-112.333416 118.39956,-142.947097 25.91811,-12.6984 53.10472,-21.153106 82.21496,-25.567854 19.95303,-3.026001 52.93316,-3.725936 73.40678,-1.557908 61.62065,6.525241 115.55192,30.503747 156.20668,69.451411 C 202.87613,68.47078 223.45292,130.96239 210.05136,193.10817 198.08478,248.59964 157.66715,298.6613 99.805,329.66035 56.01995,353.11773 0.43948,364.83617 -51.3,361.51893 Z"
       id="path2210"
       inkscape:connector-curvature="0" />
    <g
       id="g1224"
       transform="matrix(0.59808454,0,0,0.59808454,373.34147,215.8158)">
      <path
         d="m 216.89053,62.041171 1.84482,-7.582144 h 4.07398 l 8.64759,-35.786312 h -5.26542 l 1.80638,-7.582144 h 16.68027 l -10.454,43.368456 h 5.03484 l -1.8064,7.582144 h -20.56206 m -14.2205,-10.5857 8.41698,3.626236 c -3.74093,5.347796 -9.32663,8.021688 -16.75712,8.021712 -5.17576,-2.4e-5 -9.30098,-1.391896 -12.37569,-4.17568 -3.07469,-2.808212 -4.61204,-6.544348 -4.61204,-11.2084 0,-5.982688 2.0626,-11.147336 6.18784,-15.493984 4.1252,-4.371 9.22408,-6.556512 15.29665,-6.556536 4.7145,2.4e-5 8.64757,1.428556 11.79916,4.285556 3.15152,2.83266 4.72731,6.666456 4.72737,11.501436 -6e-5,1.611688 -0.17942,3.296612 -0.53808,5.054768 h -26.44244 c -0.15376,0.805856 -0.23063,1.575048 -0.2306,2.307616 -3e-5,2.246564 0.62773,4.016952 1.88324,5.31116 1.28112,1.269804 2.95939,1.904696 5.03484,1.904696 3.20278,0 5.73941,-1.526196 7.60989,-4.57858 M 189.75628,40.723235 h 14.72012 c 0.10248,-0.537208 0.15372,-1.074412 0.15374,-1.611668 -2e-5,-1.904676 -0.60215,-3.430868 -1.80638,-4.578588 -1.17866,-1.172096 -2.63915,-1.758156 -4.38145,-1.75818 -3.9459,2.4e-5 -6.84124,2.649484 -8.68603,7.948436 m -18.1792,12.014228 -2.03697,8.168224 c -3.27971,1.465132 -6.48255,2.197708 -9.60846,2.197732 -2.40852,-2.4e-5 -4.35584,-0.65934 -5.84193,-1.977956 -1.46051,-1.343064 -2.19074,-3.089028 -2.19074,-5.237924 0,-1.58724 0.21779,-3.235524 0.65338,-4.944872 l 4.07399,-16.812616 h -4.38145 l 1.80637,-7.58214 h 4.38145 l 1.26833,-5.164668 13.60557,-9.010676 -3.45904,14.175344 h 5.03481 l -1.80638,7.58214 h -5.03483 l -3.99712,16.446328 c -0.205,0.83026 -0.3075,1.501768 -0.30747,2.014568 -3e-5,1.24538 0.78146,1.86808 2.34447,1.86808 1.48607,0 3.3181,-0.573844 5.49602,-1.721564 m -59.30332,9.303708 1.80638,-7.582144 h 4.49676 l 4.95795,-20.328976 h -5.03481 l 1.80637,-7.58214 h 15.10449 l -2.49821,10.292668 0.15374,0.146516 c 3.97145,-5.518692 6.71308,-8.693196 8.22482,-9.523476 1.53733,-0.830216 3.13873,-1.245332 4.80424,-1.24538 0.97362,4.8e-5 2.08819,0.109924 3.34373,0.329672 l -2.26758,9.45022 c -1.22993,-0.244176 -2.38295,-0.366264 -3.45904,-0.366288 -6.14943,2.4e-5 -10.12094,3.748352 -11.91448,11.24502 l -1.8064,7.582164 h 5.84194 l -1.84482,7.582144 h -21.71508 m -13.836173,-10.5857 8.417003,3.626236 c -3.74093,5.347796 -9.326633,8.021688 -16.757133,8.021712 -5.17576,-2.4e-5 -9.300987,-1.391896 -12.375679,-4.17568 -3.074704,-2.808212 -4.612056,-6.544348 -4.612048,-11.2084 -8e-6,-5.982688 2.062604,-11.147336 6.187836,-15.493984 4.125208,-4.371 9.224091,-6.556512 15.296651,-6.556536 4.71451,2.4e-5 8.647573,1.428556 11.799163,4.285556 3.15152,2.83266 4.72732,6.666456 4.72737,11.501436 -5e-5,1.611688 -0.17942,3.296612 -0.53807,5.054768 H 84.140222 c -0.153748,0.805856 -0.230612,1.575048 -0.2306,2.307616 -1.2e-5,2.246564 0.62774,4.016952 1.883255,5.31116 1.28111,1.269804 2.95938,1.904696 5.03483,1.904696 3.20279,0 5.73942,-1.526196 7.60988,-4.57858 M 85.523837,40.723235 h 14.720143 c 0.10246,-0.537208 0.1537,-1.074412 0.15374,-1.611668 -4e-5,-1.904676 -0.602163,-3.430868 -1.806393,-4.578588 -1.17866,-1.172096 -2.63915,-1.758156 -4.38145,-1.75818 -3.94589,2.4e-5 -6.84124,2.649484 -8.68604,7.948436 M 39.48017,62.407459 34.445342,19.039003 h -5.457596 l 1.998556,-7.948432 h 22.7528 l -1.99856,7.948432 H 47.01319 l 2.6135,27.618092 16.757128,-27.618092 h -4.727356 l 1.998552,-7.948432 H 84.10179 l -1.883256,7.948432 H 77.18371 L 50.587534,62.407459 H 39.48017"
         style="font-style:italic;font-variant:normal;font-weight:bold;font-stretch:normal;font-size:32px;font-family:Rockwell;writing-mode:lr-tb;text-anchor:start;fill:#666666;fill-opacity:1;stroke:none;stroke-width:3pt;stroke-linecap:butt;stroke-linejoin:miter;stroke-opacity:1"
         id="text1583"
         inkscape:connector-curvature="0" />
      <path
         d="m 20.022806,0.646475 0.117632,88.280756"
         style="fill:#000000;fill-opacity:0.73825504;fill-rule:evenodd;stroke:#000000;stroke-width:1.29295099;stroke-linecap:butt;stroke-linejoin:round;stroke-miterlimit:4;stroke-opacity:1"
         id="path1586"
         inkscape:connector-curvature="0" />
      <path
         d="M 1.335225,74.325851 250.32842,74.222161"
         style="fill:#000000;fill-opacity:0.73825504;fill-rule:evenodd;stroke:#000000;stroke-width:2.67044902;stroke-linecap:butt;stroke-linejoin:round;stroke-miterlimit:4;stroke-opacity:1"
         id="path1587"
         inkscape:connector-curvature="0" />
    </g>
    <text
       xml:space="preserve"
       style="font-style:normal;font-variant:normal;font-weight:normal;font-stretch:normal;font-size:15px;line-height:125%;font-family:Ubuntu;-inkscape-font-specification:'Ubuntu, Normal';text-align:center;letter-spacing:0px;word-spacing:0px;writing-mode:lr-tb;text-anchor:middle;fill:#000000;fill-opacity:1;stroke:none;stroke-width:0.99999994px;stroke-linecap:butt;stroke-linejoin:miter;stroke-opacity:1"
       x="385.54636"
       y="68.822594"
       id="text2035"><tspan
         sodipodi:role="line"
         x="385.54636"
         y="68.822594"
         style="font-style:normal;font-variant:normal;font-weight:normal;font-stretch:normal;font-size:26.66666603px;font-family:Ubuntu;-inkscape-font-specification:'Ubuntu, Normal';font-variant-ligatures:normal;font-variant-caps:normal;font-variant-numeric:normal;font-feature-settings:normal;text-align:center;writing-mode:lr-tb;text-anchor:middle;stroke-width:0.99999994px"
         id="tspan835">Project Task Weekno</tspan></text>
    <flowRoot
       xml:space="preserve"
       id="flowRoot892"
       style="font-style:normal;font-variant:normal;font-weight:500;font-stretch:normal;font-size:53.33333206px;line-height:1.25;font-family:'Futura PT';-inkscape-font-specification:'Futura PT, Medium';font-variant-ligatures:normal;font-variant-caps:normal;font-variant-numeric:normal;font-feature-settings:normal;text-align:start;letter-spacing:0px;word-spacing:0px;writing-mode:lr-tb;text-anchor:start;fill:#000000;fill-opacity:1;stroke:none"><flowRegion
         id="flowRegion894"><rect
           id="rect896"
           width="165"
           height="57"
           x="276"
           y="-57" /></flowRegion><flowPara
         id="flowPara898"></flowPara></flowRoot>    <text
       xml:space="preserve"
       style="font-style:normal;font-variant:normal;font-weight:normal;font-stretch:normal;font-size:19.85299492px;line-height:125%;font-family:Ubuntu;-inkscape-font-specification:'Ubuntu, Normal';text-align:start;letter-spacing:0px;word-spacing:0px;writing-mode:lr-tb;text-anchor:start;fill:#000000;fill-opacity:1;stroke:none;stroke-width:0.99999988px;stroke-linecap:butt;stroke-linejoin:miter;stroke-opacity:1"
       x="331.94778"
       y="154.35178"
       id="text2039"><tspan
         sodipodi:role="line"
         x="331.94778"
         y="154.35178"
         style="stroke-width:0.99999988px"
         id="tspan2041">odoo-project</tspan></text>
    <text
       xml:space="preserve"
       style="font-style:normal;font-variant:normal;font-weight:500;font-stretch:normal;font-size:34.75268555px;line-height:1.25;font-family:'Futura PT';-inkscape-font-specification:'Futura PT, Medium';font-variant-ligatures:normal;font-variant-caps:normal;font-variant-numeric:normal;font-feature-settings:normal;text-align:start;letter-spacing:0px;word-spacing:0px;writing-mode:lr-tb;text-anchor:start;fill:#000000;fill-opacity:1;stroke:none;stroke-width:1"
       x="221"
       y="-128.96774"
       id="text839"><tspan
         sodipodi:role="line"
         id="tspan837"
         x="221"
         y="-128.96774"
         style="stroke-width:1"></tspan></text>
    <text
       xml:space="preserve"
       style="font-style:normal;font-variant:normal;font-weight:500;font-stretch:normal;font-size:42.13333511px;line-height:1.25;font-family:'Futura PT';-inkscape-font-specification:'Futura PT, Medium';font-variant-ligatures:normal;font-variant-caps:normal;font-variant-numeric:normal;font-feature-settings:normal;text-align:start;letter-spacing:0px;word-spacing:0px;writing-mode:lr-tb;text-anchor:start;fill:#000000;fill-opacity:1;stroke:none;stroke-width:1"
       x="291"
       y="151.40001"
       id="text840"><tspan
         sodipodi:role="line"
         id="tspan838"
         x="291"
         y="151.40001"
         style="stroke-width:1"></tspan></text>
  </g>
</svg>
